<?xml version="1.0" encoding="utf-8"?>
<!-- Generator: Adobe Illustrator 20.0.0, SVG Export Plug-In . SVG Version: 6.00 Build 0)  -->
<svg version="1.1" id="Layer_1" xmlns="http://www.w3.org/2000/svg" xmlns:xlink="http://www.w3.org/1999/xlink" x="0px" y="0px"
	 viewBox="0 0 27.4 26.2" style="enable-background:new 0 0 27.4 26.2;" xml:space="preserve">
<style type="text/css">
	.st0{fill:#FFFFFF;}
</style>
<g>
	<path class="st0" d="M6.6,3.1c0,0.9-0.3,1.6-0.9,2.2C5.1,5.8,4.3,6.1,3.3,6.1h0c-1,0-1.8-0.3-2.4-0.9C0.3,4.6,0,3.9,0,3.1
		c0-0.9,0.3-1.6,0.9-2.2C1.5,0.3,2.3,0,3.3,0s1.8,0.3,2.4,0.9C6.3,1.4,6.6,2.2,6.6,3.1z M6.2,8.5v17.7H0.3V8.5H6.2z M27.4,16.1v10.1
		h-5.9v-9.5c0-1.2-0.2-2.2-0.7-2.9c-0.5-0.7-1.2-1.1-2.3-1.1c-0.8,0-1.4,0.2-1.9,0.6c-0.5,0.4-0.9,0.9-1.1,1.5
		c-0.1,0.4-0.2,0.8-0.2,1.4v9.9H9.5c0-4.8,0-8.6,0-11.6c0-3,0-4.7,0-5.3l0-0.9h5.9v2.6h0c0.2-0.4,0.5-0.7,0.7-1s0.6-0.6,1-0.9
		c0.4-0.3,0.9-0.6,1.6-0.8c0.6-0.2,1.3-0.3,2-0.3c2,0,3.7,0.7,4.9,2C26.8,11.5,27.4,13.5,27.4,16.1z"/>
</g>
</svg>
