<?xml version="1.0" encoding="utf-8"?>
<!-- Generator: Adobe Illustrator 20.0.0, SVG Export Plug-In . SVG Version: 6.00 Build 0)  -->
<svg version="1.1" id="Layer_1" xmlns="http://www.w3.org/2000/svg" xmlns:xlink="http://www.w3.org/1999/xlink" x="0px" y="0px"
	 viewBox="0 0 94.8 10.5" style="enable-background:new 0 0 94.8 10.5;" xml:space="preserve">
<style type="text/css">
	.st0{fill:#071744;}
	.st1{fill:#1CA2DD;}
</style>
<g>
	<path class="st0" d="M34.5,9.5h-3.6c-0.6,0-1.1,0-1.4-0.1c-0.6-0.1-1-0.3-1.3-0.7c-0.3-0.4-0.4-0.8-0.4-1.4V1.8
		c0-0.3,0.1-0.5,0.4-0.5c0.3,0,0.4,0,0.5,0C28.9,1.4,29,1.5,29,1.8v5.5c0,0.4,0.3,0.7,0.8,0.9c0.2,0,0.6,0.1,1.2,0.1h3.6
		c0.2,0,0.3,0.1,0.3,0.2c0,0.1,0.1,0.3,0.1,0.5C34.9,9.3,34.8,9.5,34.5,9.5z"/>
	<path class="st0" d="M45.8,8.9c0,0.2,0,0.4-0.2,0.5c-0.1,0.1-0.2,0.2-0.4,0.2c-0.2,0-0.4-0.1-0.5-0.4l-1-1.9H39l-1,1.9
		c-0.1,0.2-0.2,0.3-0.3,0.3c-0.1,0-0.2,0-0.2-0.1C37.1,9.4,37,9.2,37,9c0,0,0-0.1,0-0.1l3.6-7.2c0.1-0.3,0.4-0.4,0.7-0.5
		c0.3,0,0.5,0.1,0.6,0.3c0,0,0,0.1,0.1,0.2l3.8,7.1C45.8,8.8,45.8,8.8,45.8,8.9z M41.4,2.7l-1.7,3.3h3.5L41.4,2.7z"/>
	<path class="st0" d="M55.5,9.5c0,0-0.1,0-0.1,0c-0.1,0-0.3-0.2-0.5-0.4l-5.3-5.9v5.8c0,0.3-0.1,0.4-0.2,0.5c0,0-0.2,0-0.5,0
		c-0.3,0-0.4-0.2-0.4-0.5V2.1c0-0.2,0-0.4,0-0.5c0-0.1,0.1-0.2,0.3-0.3c0.1-0.1,0.2-0.1,0.3-0.1c0.3,0,0.5,0.1,0.8,0.4L55,7.5V1.8
		c0-0.3,0.1-0.4,0.2-0.5c0.1,0,0.2,0,0.5,0c0.3,0,0.4,0.2,0.4,0.5v6.8C56.1,9.2,55.9,9.5,55.5,9.5z"/>
	<path class="st0" d="M66.9,4.8c-0.2,0-0.3,0-0.4,0h-3.1C63.1,4.8,63,5,63,5.4C63,5.8,63.1,6,63.4,6c0,0,0.1,0,0.3,0
		c0.1,0,1.8,0,2.5,0v1.4c0,0.2-0.2,0.5-0.5,0.6c-0.3,0.1-0.5,0.2-0.8,0.2h-2.6c-1,0-1.5-0.3-1.5-0.8V3.3c0-0.6,0.6-0.8,1.8-0.8
		c0.1,0,3.8,0,4,0c0.2,0,0.3,0,0.3,0c0.3,0,0.4-0.2,0.4-0.6c0-0.4-0.1-0.6-0.4-0.6h-4.6c-0.6,0-1.2,0.1-1.7,0.4
		c-0.7,0.4-1,0.9-1,1.6v4.1c0,0.8,0.3,1.3,1,1.7c0.5,0.3,1,0.4,1.7,0.4h2.6c0.6,0,1.2-0.1,1.6-0.4c0.6-0.4,0.8-0.9,0.8-1.7V5.3
		C67.3,5,67.2,4.8,66.9,4.8z"/>
	<path class="st0" d="M78.3,8.9c0,0.2-0.1,0.4-0.2,0.5c-0.1,0.1-0.2,0.2-0.4,0.2c-0.2,0-0.4-0.1-0.5-0.4l-1-1.9h-4.8l-1,1.9
		c-0.1,0.2-0.2,0.3-0.4,0.3c-0.1,0-0.1,0-0.2-0.1c-0.2-0.1-0.3-0.3-0.3-0.5c0,0,0-0.1,0-0.1l3.6-7.2c0.1-0.3,0.4-0.4,0.7-0.5
		c0.3,0,0.5,0.1,0.6,0.3c0,0,0,0.1,0.1,0.2l3.8,7.1C78.3,8.8,78.3,8.8,78.3,8.9z M73.8,2.7l-1.7,3.3h3.5L73.8,2.7z"/>
	<path class="st0" d="M85.5,2.5H83v6.5c0,0.4-0.1,0.5-0.4,0.5c-0.3,0-0.5,0-0.5,0c-0.2-0.1-0.2-0.2-0.2-0.5V2.5h-2.5
		c-0.3,0-0.4-0.2-0.4-0.5c0-0.2,0-0.4,0.1-0.5c0.1-0.1,0.2-0.2,0.3-0.2h6.1c0.2,0,0.3,0.1,0.3,0.2c0,0.1,0.1,0.3,0.1,0.5
		C85.9,2.3,85.8,2.5,85.5,2.5z"/>
	<path class="st0" d="M94.4,9.5h-4.1c-0.6,0-1.2-0.1-1.6-0.4c-0.6-0.4-0.9-0.9-0.9-1.7V3.4c0-0.4,0.1-0.8,0.3-1.1
		c0.4-0.7,1.2-1,2.3-1h4c0.3,0,0.4,0.2,0.4,0.5v0.2c0,0.4-0.1,0.5-0.4,0.5c0,0-0.1,0-0.3,0c-0.2,0-3.2,0-3.3,0
		c-1.2,0-1.9,0.3-1.9,0.9v1.4h5.5c0.3,0,0.4,0.2,0.4,0.6c0,0.2,0,0.3-0.1,0.4C94.6,6,94.5,6,94.4,6H89v1.4c0,0.6,0.5,0.9,1.5,0.9h4
		c0.3,0,0.4,0.2,0.4,0.5C94.8,9.2,94.7,9.5,94.4,9.5z"/>
</g>
<g>
	<path class="st1" d="M0.2,6c0,0,23,9.5,22,1C21.2-1.6,26.3,16.2,0.2,6z"/>
	<path class="st1" d="M22.1,4.5c0,0-23-9.5-22-1C1,12.1-4.1-5.6,22.1,4.5z"/>
</g>
</svg>
